# xmcd
#
# Track frame offsets:
#	182
#	19027
#	32940
#	47812
#	59165
#	70952
#	85677
#	99140
#	112517
#	125255
#	137090
#	148997
#	162727
#	172222
#	186477
#	200147
#	209427
#	221965
#
# Disc length: 3121 seconds
#
# Revision: 1
# Processed by: cddbd v1.5.1PL2 Copyright (c) Steve Scherf et al.
# Submitted via: audiograbber 1.83.01
#
DISCID=200c2f12
DTITLE=Shakey Horton - Hard Hearted Woman
DYEAR=1991
DGENRE=Chicago Blues
TTITLE0=Good moanin' blues
TTITLE1=Gonna bring it on home
TTITLE2=Groove walk
TTITLE3=La cucuracha
TTITLE4=John Henry
TTITLE5=Hard hearted woman
TTITLE6=Wee baby blues
TTITLE7=It's alright
TTITLE8=Wrinkles
TTITLE9=Friday night stomp
TTITLE10=Truckin' little woman
TTITLE11=Just One Mistake
TTITLE12=Dorothy Mae
TTITLE13=Blow wind blow
TTITLE14=Mad love (I want you to love me)
TTITLE15=If it ain't me (who you thinking of)
TTITLE16=Walking by myself
TTITLE17=I'm leaving you
EXTD=
EXTT0=
EXTT1=
EXTT2=
EXTT3=
EXTT4=
EXTT5=
EXTT6=
EXTT7=
EXTT8=
EXTT9=
EXTT10=
EXTT11=
EXTT12=
EXTT13=
EXTT14=
EXTT15=
EXTT16=
EXTT17=
PLAYORDER=
